<svg xmlns="http://www.w3.org/2000/svg" viewBox="0 0 5076.64 2236.25"><defs><style>.cls-1,.cls-3{fill:none;stroke:#ededed;stroke-miterlimit:22.93;stroke-width:0.22px;}.cls-1,.cls-5,.cls-6{fill-rule:evenodd;}.cls-2,.cls-6{fill:#da1f26;}.cls-4,.cls-5{fill:#1a1a18;}</style></defs><title>Asset 1</title><g id="Layer_2" data-name="Layer 2"><g id="Layer_1-2" data-name="Layer 1"><path class="cls-1" d="M341.52,1727.2q-146.75,0-239.37-97.49T9.54,1369.1q0-156.15,88.44-257.82,88.52-101.85,245.64-101.84,145.45,0,236.94,95.92t91.57,256.09q0,165.81-92.45,265.66-92.17,100-238.15,100.1Zm-1-158.25q54.06,0,77.81-47.18c15.84-31.33,23.68-89,23.68-172.52q0-181.74-97.32-181.58-105.23,0-105.14,207Q239.51,1569,340.48,1568.95Z"/><path class="cls-2" d="M341.52,1727.2h-.78V1568.95q53.85-.12,77.55-47.18c15.84-31.33,23.68-89,23.68-172.52q0-181.74-97.32-181.58c-1.32,0-2.62,0-3.91.08V1009.45h2.87q145.45,0,236.94,95.92t91.57,256.09q0,165.81-92.45,265.66Q487.5,1727.11,341.52,1727.2Zm-.78,0q-146.22-.26-238.59-97.49-92.7-97.4-92.62-260.61,0-156.15,88.44-257.82,87.71-100.91,242.77-101.83v158.31q-101.31,3.81-101.23,206.91,0,194.28,101,194.28h.27Z"/><path class="cls-3" d="M5076.53,2075.44v158H5030.6v-86.76l-59.16,86.76h-46.05v-158h46.05v87.43l59.5-87.43Zm-201.93,158h-48.81V2114.28h-38.18v48.58c0,20-1,34.66-3.17,44s-7.06,16.27-14.85,20.63-20.4,6.6-37.77,6.6a114.18,114.18,0,0,1-18.33-1.74v-32h7.32c6.65,0,11.27-1.48,14-4.39s4.07-8.25,4.07-16V2075.44H4874.6v158Zm-248.28-60.26-17.43-56.8-17.37,56.8Zm10.23,34.17H4581l-7.67,26.09h-49.89l59.39-158H4636l59.42,158h-51.14l-7.76-26.09ZM4437,2075.44h48.93v158H4437v-158Zm-130.89,67.38h12q14.08,0,19.84-4.88a16,16,0,0,0,5.67-12.55,17.52,17.52,0,0,0-4.94-12.61c-3.28-3.46-9.53-5.2-18.62-5.2h-13.92v35.24Zm-49-67.38h81.15q26.45,0,39.69,12.67c8.77,8.37,13.16,20.34,13.16,35.82,0,16-4.74,28.45-14.32,37.42s-24.29,13.48-43.93,13.48h-26.73v58.63h-49v-158Zm-177.67,0h130.78v33.73h-81.85v25.16h75.92v32.22h-75.92v31.12h84.26v35.8H4079.42v-158Zm-188.8,0H4039v39.05h-49.8v119h-48.81v-119h-49.77v-39.05Zm-92,97.77-17.46-56.8-17.35,56.8Zm10.23,34.17h-55.61l-7.64,26.09h-49.86l59.33-158h53.23l59.39,158h-51.08l-7.76-26.09ZM3415.77,2024.1h85.1l32.89,127.38,32.69-127.38h84.78v209.37h-52.85V2073.81l-41,159.66h-47.8l-40.88-159.66v159.66h-53V2024.1Zm-309.32,51.34h49v158h-49v-158Zm-204,0h48.81v55.32h53.37v-55.32h49v158h-49v-63.89h-53.37v63.89h-48.81v-158ZM2762,2199.5h25c15.34,0,23-5.49,23-16.59,0-9.7-7.61-14.56-23-14.56h-25v31.15Zm0-63.14h26.06c23.91,0,41.64,4.18,53.23,12.67s17.32,21.56,17.32,39.34c0,14.64-5.26,25.74-15.86,33.5s-25.8,11.59-45.59,11.59h-83.91v-158H2762v60.93Zm-99.69,97.1h-48.78V2114.28h-38.21v48.58c0,20-1,34.66-3.14,44s-7.06,16.27-14.88,20.63-20.37,6.6-37.8,6.6a115.06,115.06,0,0,1-18.3-1.74v-32h7.32c6.65,0,11.3-1.48,14-4.39s4.07-8.25,4.07-16V2075.44h135.69v158Zm-323-158h130.78v33.73h-81.88v25.16h76v32.22h-76v31.12h84.29v35.8H2339.31v-158ZM2198.65,2199.5h24.9c8.46,0,14.35-1.48,17.78-4.45s5.17-7,5.17-12.06a13.79,13.79,0,0,0-5.11-11.24c-3.43-2.82-9.36-4.24-17.93-4.24h-24.81v32Zm0-62.06h21.24c7.58,0,12.9-1.34,15.92-3.92s4.45-6.45,4.45-11.36c0-4.62-1.45-8.22-4.45-10.78s-8.19-3.92-15.6-3.92h-21.56v30Zm-49.25-62h91.41c15.2,0,26.93,3.84,35,11.39a36.43,36.43,0,0,1,12.26,28,35.53,35.53,0,0,1-8.72,24.06c-3.92,4.45-9.56,8-17,10.55,11.3,2.7,19.7,7.44,25,14.06s8,15,8,25a43.32,43.32,0,0,1-5.69,22.08,42.23,42.23,0,0,1-15.63,15.54q-6.1,3.49-18.54,5.17c-11,1.39-18.28,2.15-21.91,2.15H2149.4v-158Zm-102.45,0h48.9v158H2047v-158ZM1916,2142.82h12c9.41,0,16-1.63,19.84-4.88a15.92,15.92,0,0,0,5.69-12.55,17.43,17.43,0,0,0-5-12.61c-3.25-3.46-9.5-5.2-18.62-5.2H1916v35.24Zm-49-67.38h81.15q26.5,0,39.72,12.67c8.75,8.37,13.19,20.34,13.19,35.82q0,24-14.38,37.42t-43.93,13.48H1916v58.63h-49v-158Zm-35.62,158h-55l-19-40.85c-4.53-9.65-8.08-15.66-10.55-18s-6-3.6-10.46-3.6v62.5h-48.75v-158h48.75v60.67c4.18-.17,7.53-1.66,9.88-4.5s6.07-10.81,11.13-24.14c3.66-9.82,7.35-16.88,11.1-21.12s9.79-7.38,18.19-9.24,21.59-2.79,39.54-2.79v33.41h-2.44q-12.55,0-18.54,4.74c-4.07,3.14-7.32,8.25-9.94,15.31s-5.38,12.38-8.34,15.89a31.59,31.59,0,0,1-12.23,8.34,43.27,43.27,0,0,1,18.42,11.91c5.26,5.61,10.81,14.41,16.71,26.32l21.47,43.23Zm-303.25-78.71c0,16,2.93,27.43,8.86,34.43s14,10.43,24.2,10.43q15.73,0,24.35-10.23t8.66-36.73c0-14.93-3-25.74-9-32.66s-14.15-10.26-24.44-10.26c-9.82,0-17.72,3.46-23.71,10.46s-8.92,18.48-8.92,34.55Zm-48.84-.2q0-38.7,21.56-60.2t60-21.56q39.44,0,60.84,21.18t21.3,59.3q0,27.68-9.33,45.41a66.63,66.63,0,0,1-26.93,27.6q-17.61,9.85-43.9,9.85-26.72,0-44.22-8.48c-11.68-5.72-21.12-14.67-28.42-27s-10.9-27.69-10.9-46.14Zm-56.11,78.91h-64.5V2075.55h-71.1v157.91H1223V2024.1H1423.2v209.37Zm-510.47-158h48.9v158h-48.9v-158Zm-204,0h48.81v55.32h53.37v-55.32h49v158h-49v-63.89H757.52v63.89H708.7v-158Zm-189,0H668v39.05h-49.8v119H569.41v-119H519.67v-39.05Zm-91.32,0h48.93v158H428.35v-158Zm-52.65,158H326.89V2114.28H288.71v48.58c0,20-1,34.66-3.14,44s-7.06,16.27-14.88,20.63-20.4,6.6-37.77,6.6a115.39,115.39,0,0,1-18.33-1.74v-32h7.35c6.62,0,11.27-1.48,14-4.39s4-8.25,4-16V2075.44H375.7v158ZM.11,2024.1H173.42v44.72H64.93v33.27H165.58v42.71H64.93V2186H176.62v47.45H.11Z"/><path class="cls-4" d="M5076.53,2075.44v158H5030.6v-86.76l-59.16,86.76h-46.05v-158h46.05v87.43l59.5-87.43Zm-467.61,131.94v-34.17h17.4l-17.4-56.71v-41.06H4636l59.42,158h-51.14l-7.76-26.09Zm265.68,26.09h-48.81V2114.28h-38.18v48.58c0,20-1,34.66-3.17,44s-7.06,16.27-14.85,20.63-20.4,6.6-37.77,6.6a114.18,114.18,0,0,1-18.33-1.74v-32h7.32c6.65,0,11.27-1.48,14-4.39s4.07-8.25,4.07-16V2075.44H4874.6Zm-265.68-158v41.06l0-.09-17.37,56.8h17.4v34.17h-28l-7.67,26.09h-49.89l59.39-158Zm-284.07,99.4v-32.35q8.81-.94,13.07-4.55a16,16,0,0,0,5.67-12.55,17.52,17.52,0,0,0-4.94-12.61c-2.67-2.81-7.29-4.48-13.8-5v-32.32h13.39q26.45,0,39.69,12.67c8.77,8.37,13.16,20.34,13.16,35.82,0,16-4.74,28.45-14.32,37.42s-24.29,13.48-43.93,13.48Zm112.15-99.4h48.93v158H4437Zm-112.15,0v32.32q-2.26-.18-4.82-.18h-13.92v35.24h12a64,64,0,0,0,6.77-.33v32.35h-18.74v58.63h-49v-158ZM3781.2,2207.38v-34.17h17.4l-17.4-56.61v-41.16h27.08l59.39,158h-51.08l-7.76-26.09Zm298.22-131.94h130.78v33.73h-81.85v25.16h75.92v32.22h-75.92v31.12h84.26v35.8H4079.42v-158Zm-188.8,0H4039v39.05h-49.8v119h-48.81v-119h-49.77Zm-109.42,0v41.16l-.06-.19-17.35,56.8h17.4v34.17h-28l-7.64,26.09h-49.86l59.33-158Zm-995.24,158v-34h1c15.34,0,23-5.49,23-16.59,0-9.7-7.61-14.56-23-14.56h-1v-32h2.11c23.91,0,41.64,4.18,53.23,12.67s17.32,21.56,17.32,39.34c0,14.64-5.26,25.74-15.86,33.5s-25.8,11.59-45.59,11.59Zm629.81-209.37h85.1l32.89,127.38,32.69-127.38h84.78v209.37h-52.85V2073.81l-41,159.66h-47.8l-40.88-159.66v159.66h-53V2024.1Zm-309.32,51.34h49v158h-49v-158Zm-204,0h48.81v55.32h53.37v-55.32h49v158h-49v-63.89h-53.37v63.89h-48.81ZM2786,2136.36v32h-24v31.15h24v34h-72.71v-158H2762v60.93Zm-563.38,97.1v-34h1c8.46,0,14.35-1.48,17.78-4.45s5.17-7,5.17-12.06a13.79,13.79,0,0,0-5.11-11.24c-3.43-2.82-9.36-4.24-17.93-4.24h-.89v-30.13c6.17-.29,10.58-1.59,13.23-3.86,3-2.64,4.45-6.45,4.45-11.36,0-4.62-1.45-8.22-4.45-10.78-2.69-2.35-7.08-3.62-13.23-3.88v-32.07h18.23c15.2,0,26.93,3.84,35,11.39a36.43,36.43,0,0,1,12.26,28,35.53,35.53,0,0,1-8.72,24.06c-3.92,4.45-9.56,8-17,10.55,11.3,2.7,19.7,7.44,25,14.06s8,15,8,25a43.32,43.32,0,0,1-5.69,22.08,42.23,42.23,0,0,1-15.63,15.54q-6.1,3.49-18.54,5.17c-11,1.39-18.28,2.15-21.91,2.15Zm439.73,0h-48.78V2114.28h-38.21v48.58c0,20-1,34.66-3.14,44s-7.06,16.27-14.88,20.63-20.37,6.6-37.8,6.6a115.06,115.06,0,0,1-18.3-1.74v-32h7.32c6.65,0,11.3-1.48,14-4.39s4.07-8.25,4.07-16V2075.44h135.69v158Zm-323-158h130.78v33.73h-81.88v25.16h76v32.22h-76v31.12h84.29v35.8H2339.31Zm-116.73,0v32.07q-1.14,0-2.37,0h-21.56v30h21.24q1.39,0,2.69-.06v30.13h-23.93v32h23.93v34H2149.4v-158Zm-287.79,99.4v-32.35q8.82-.94,13.06-4.55a15.92,15.92,0,0,0,5.69-12.55,17.43,17.43,0,0,0-5-12.61c-2.64-2.81-7.26-4.48-13.79-5v-32.32h13.38q26.5,0,39.72,12.67c8.75,8.37,13.19,20.34,13.19,35.82q0,24-14.38,37.42t-43.93,13.48Zm112.17-99.4h48.9v158H2047Zm-112.17,0v32.32q-2.27-.18-4.84-.18H1916v35.24h12a64.22,64.22,0,0,0,6.78-.33v32.35H1916v58.63h-49v-158Zm-373.61,160.7v-36.51h0q15.73,0,24.35-10.23t8.66-36.73c0-14.93-3-25.74-9-32.66q-8.9-10.11-24-10.25v-37q39.21.09,60.52,21.18t21.3,59.3q0,27.68-9.33,45.41a66.63,66.63,0,0,1-26.93,27.6q-17.61,9.85-43.9,9.85Zm270.21-2.66h-55l-19-40.85c-4.53-9.65-8.08-15.66-10.55-18s-6-3.6-10.46-3.6v62.5h-48.75v-158h48.75v60.67c4.18-.17,7.53-1.66,9.88-4.5s6.07-10.81,11.13-24.14c3.66-9.82,7.35-16.88,11.1-21.12s9.79-7.38,18.19-9.24,21.59-2.79,39.54-2.79v33.41h-2.44q-12.55,0-18.54,4.74c-4.07,3.14-7.32,8.25-9.94,15.31s-5.38,12.38-8.34,15.89a31.59,31.59,0,0,1-12.23,8.34,43.27,43.27,0,0,1,18.42,11.91c5.26,5.61,10.81,14.41,16.71,26.32Zm-270.21-160.67v37h-.41c-9.82,0-17.72,3.46-23.71,10.46s-8.92,18.48-8.92,34.55,2.93,27.43,8.86,34.43,14,10.42,24.17,10.43v36.51q-25.6-.26-42.57-8.48c-11.68-5.72-21.12-14.67-28.42-27s-10.9-27.69-10.9-46.14q0-38.7,21.56-60.2t60-21.56Zm-138,160.67h-64.5V2075.55h-71.1v157.91H1223V2024.1H1423.2v209.37Zm-510.47-158h48.9v158h-48.9v-158Zm-204,0h48.81v55.32h53.37v-55.32h49v158h-49v-63.89H757.52v63.89H708.7v-158Zm-189,0H668v39.05h-49.8v119H569.41v-119H519.67v-39.05Zm-91.32,0h48.93v158H428.35v-158Zm-52.65,158H326.89V2114.28H288.71v48.58c0,20-1,34.66-3.14,44s-7.06,16.27-14.88,20.63-20.4,6.6-37.77,6.6a115.39,115.39,0,0,1-18.33-1.74v-32h7.35c6.62,0,11.27-1.48,14-4.39s4-8.25,4-16V2075.44H375.7v158ZM.11,2024.1H173.42v44.72H64.93v33.27H165.58v42.71H64.93V2186H176.62v47.45H.11Z"/><path class="cls-3" d="M5009,1133l-164.22,262.66,190.25,303H4833.19l-104.37-177.76-105.24,177.76H4464.46l182.32-292.9L4471.92,1133h202.17l87.83,152,91.2-152Zm-867.35,330.71h92l-46-164.1-46,164.1Zm154.2,234.91-32-111.46H4112.28l-34,111.46H3937.45L4112.28,1133h183.6l176.92,565.62Z"/><path class="cls-4" d="M5009,1133l-164.22,262.66,190.25,303H4833.19l-104.37-177.76-105.24,177.76h-150.8l-4.17-13.33v6.63l178.15-286.21L4471.92,1133h202.17l87.83,152,91.2-152Zm-540.41,565.62h-4.17l4.17-6.7v-6.63L4295.88,1133H4187.66v166.65l46,164.05h-46v123.46h76.23l32,111.46Zm-281-565.62v166.6l-46,164.1h46v123.46h-75.38l-34,111.46H3937.45L4112.28,1133Z"/><path class="cls-3" d="M1063.12,1716.39l-32-111.43H879.52l-34,111.43H704.69l174.82-565.59h183.6l176.95,565.59ZM2702.87,1500.6l158.7,9.44q-11.24,103.94-76.94,159.54t-161.4,55.58q-115.19,0-186-76.39-70.87-76.14-70.89-210.45,0-133.06,67.2-214.57,67-81.72,187.26-81.76,112.23,0,172.59,62.24t68.16,164.92l-162.1,8.63c0-37.77-7.21-65.05-21.62-82.05-14.59-16.82-31.7-25.16-51.22-25.16q-82.07,0-82,164.92,0,92.35,21.33,125.49t59.85,33.21q68.73,0,77.08-93.59Zm-724.78,156.11v59.68H1809.49V1150.81h168.61v227q0,45.24-4.94,107.79c20.63-45.27,41.32-85.42,61.65-120.52l89.55-153.76v-60.49h168.75v565.59H2124.36v-225q0-48.38,4.53-107.36-24.8,57.27-61.68,120.23l-89.11,152.48ZM1249.94,1538.6,1407.39,1522c4.79,27.89,13,48,24.9,60.29s29.67,18.51,53.43,18.51c48.41,0,72.58-21.91,72.58-65.49q0-57.7-58.43-57.7h-39.49v-99.46h34.84c34.66,0,51.89-19.09,51.89-57.56q0-54.74-69.27-54.74-31,0-49.68,13.16c-12.44,8.63-21.21,27.86-26.15,57.7l-138.36-22.31q18.26-172.28,222.07-172.44,100,0,167.07,38.59t67,116.42q0,81.28-88.24,116.83,105.6,37.35,105.64,129.7,0,77.71-66.22,129.59-66.38,52-182.32,52-109,0-173.81-47.53t-64.94-139Zm-341-57.12h91.93l-46-164.1Z"/><path class="cls-4" d="M1063.12,1716.39l-32-111.43H954.89V1481.48h46l-46-164.1V1150.81h108.23l176.95,565.59ZM2702.87,1500.6l158.7,9.44q-11.24,103.94-76.94,159.54t-161.4,55.58q-115.19,0-186-76.39-70.87-76.14-70.89-210.45,0-133.06,67.2-214.57,67-81.72,187.26-81.76,112.23,0,172.59,62.24t68.16,164.92l-162.1,8.63c0-37.77-7.21-65.05-21.62-82.05-14.59-16.82-31.7-25.16-51.22-25.16q-82.07,0-82,164.92,0,92.35,21.33,125.49t59.85,33.21q68.73,0,77.08-93.59Zm-724.78,156.11v59.68H1809.49V1150.81h168.61v227q0,45.24-4.94,107.79c20.63-45.27,41.32-85.42,61.65-120.52l89.55-153.76v-60.49h168.75v565.59H2124.36v-225q0-48.38,4.53-107.36-24.8,57.27-61.68,120.23l-89.11,152.48ZM1249.94,1538.6,1407.39,1522c4.79,27.89,13,48,24.9,60.29s29.67,18.51,53.43,18.51c48.41,0,72.58-21.91,72.58-65.49q0-57.7-58.43-57.7h-39.49v-99.46h34.84c34.66,0,51.89-19.09,51.89-57.56q0-54.74-69.27-54.74-31,0-49.68,13.16c-12.44,8.63-21.21,27.86-26.15,57.7l-138.36-22.31q18.26-172.28,222.07-172.44,100,0,167.07,38.59t67,116.42q0,81.28-88.24,116.83,105.6,37.35,105.64,129.7,0,77.71-66.22,129.59-66.38,52-182.32,52-109,0-173.81-47.53T1249.94,1538.6ZM954.89,1605H879.52l-34,111.43H704.69l174.82-565.59h75.37v166.57l-46,164.1h46Z"/><path class="cls-3" d="M790.35,897.8H893.78A27.35,27.35,0,0,0,910.92,892l914.78-690.3a14.22,14.22,0,0,0,.36-22.44l-7-5.67a14.09,14.09,0,0,0-17.49-.28l-903.79,682a59.36,59.36,0,0,1-36.42,12.21h-78a14.23,14.23,0,0,0-6.9,26.66,28.63,28.63,0,0,0,13.95,3.56ZM2729.84,902a27.3,27.3,0,0,0,14.11,3.71h520.62a28,28,0,0,0,26.92-19.23,28.47,28.47,0,0,0,.76-16.23,14.23,14.23,0,0,0-22.62-7.69,60.26,60.26,0,0,1-37.52,12.93H2737a14.23,14.23,0,0,0-7.18,26.51Zm361.68-276.75h392a27.72,27.72,0,0,0,23.77-12.82l176.25-267.89a31.14,31.14,0,0,1,2.76-3.59,14.08,14.08,0,0,0,1.27-17.36l-.81-1.22a14.24,14.24,0,0,0-23.75,0L3501.6,567.8A59.71,59.71,0,0,1,3451.09,595H3089.25a14.23,14.23,0,0,0-8.74,25.45l2.27,1.76a13.67,13.67,0,0,0,8.74,3Zm864.61,272.23a28.31,28.31,0,0,0,13.74,3.55h239.58a28,28,0,0,0,26.41-17.85,28.27,28.27,0,0,0,1.26-17.69,14.23,14.23,0,0,0-22.61-7.6A60.24,60.24,0,0,1,4177,870.82H3963a14.23,14.23,0,0,0-6.89,26.67Zm228.37-169.13h258.92A27.7,27.7,0,0,0,4466.84,716L4619,495.3a29.69,29.69,0,0,1,2.3-2.94,14.07,14.07,0,0,0,1.28-17.2l-1.12-1.74a14.24,14.24,0,0,0-23.65-.32L4460.73,672a59.7,59.7,0,0,1-49.79,26.15H4182.66a14.23,14.23,0,0,0-9.85,24.5l1.84,1.76a13.71,13.71,0,0,0,9.84,4Zm723,138.62,11.27,17.33a27.71,27.71,0,0,0,23.86,12.95h18.89a28.56,28.56,0,0,0,27.59-35.74,14.23,14.23,0,0,0-22.56-7.38,60,60,0,0,1-37.5,12.9H4910l-2.5,0ZM2239.83.11h69.68a14.26,14.26,0,0,1,14.23,14.22V197.49a14.25,14.25,0,0,1-14.23,14.23h-69.68a14.25,14.25,0,0,1-14.23-14.23V14.34A14.25,14.25,0,0,1,2239.83.11Z"/><path class="cls-5" d="M790.35,897.8H893.78A27.35,27.35,0,0,0,910.92,892l914.78-690.3a14.22,14.22,0,0,0,.36-22.44l-7-5.67a14.09,14.09,0,0,0-17.49-.28l-903.79,682a59.36,59.36,0,0,1-36.42,12.21h-78a14.23,14.23,0,0,0-6.9,26.66,28.63,28.63,0,0,0,13.95,3.56ZM2729.84,902a27.3,27.3,0,0,0,14.11,3.71h520.62a28,28,0,0,0,26.92-19.23,28.47,28.47,0,0,0,.76-16.23,14.23,14.23,0,0,0-22.62-7.69,60.26,60.26,0,0,1-37.52,12.93H2737a14.23,14.23,0,0,0-7.18,26.51Zm361.68-276.75h392a27.72,27.72,0,0,0,23.77-12.82l176.25-267.89a31.14,31.14,0,0,1,2.76-3.59,14.08,14.08,0,0,0,1.27-17.36l-.81-1.22a14.24,14.24,0,0,0-23.75,0L3501.6,567.8A59.71,59.71,0,0,1,3451.09,595H3089.25a14.23,14.23,0,0,0-8.74,25.45l2.27,1.76a13.67,13.67,0,0,0,8.74,3Zm864.61,272.23a28.31,28.31,0,0,0,13.74,3.55h239.58a28,28,0,0,0,26.41-17.85,28.27,28.27,0,0,0,1.26-17.69,14.23,14.23,0,0,0-22.61-7.6A60.24,60.24,0,0,1,4177,870.82H3963a14.23,14.23,0,0,0-6.89,26.67Zm228.37-169.13h258.92A27.7,27.7,0,0,0,4466.84,716L4619,495.3a29.69,29.69,0,0,1,2.3-2.94,14.07,14.07,0,0,0,1.28-17.2l-1.12-1.74a14.24,14.24,0,0,0-23.65-.32L4460.73,672a59.7,59.7,0,0,1-49.79,26.15H4182.66a14.23,14.23,0,0,0-9.85,24.5l1.84,1.76a13.71,13.71,0,0,0,9.84,4Zm723,138.62,11.27,17.33a27.71,27.71,0,0,0,23.86,12.95h18.89a28.56,28.56,0,0,0,27.59-35.74,14.23,14.23,0,0,0-22.56-7.38,60,60,0,0,1-37.5,12.9H4910l-2.5,0ZM2239.83.11h69.68a14.26,14.26,0,0,1,14.23,14.22V197.49a14.25,14.25,0,0,1-14.23,14.23h-69.68a14.25,14.25,0,0,1-14.23-14.23V14.34A14.25,14.25,0,0,1,2239.83.11Z"/><path class="cls-1" d="M757.88,835.57H861.31a27.35,27.35,0,0,0,17.14-5.75l914.86-690.36a28.17,28.17,0,0,1,35,.55l865.34,697.17a27.36,27.36,0,0,0,17.85,6.3h520.62a28.46,28.46,0,0,0,17.47-50.92L3020,613.94A28.46,28.46,0,0,1,3037.43,563h413.66a27.72,27.72,0,0,0,23.77-12.82l176.25-267.89a28.47,28.47,0,0,1,47.5-.07l205.6,310.4a27.3,27.3,0,0,1,4.74,15.71v202a28.51,28.51,0,0,0,28.45,28.45H4177a28.46,28.46,0,0,0,19.68-49l-78-74.68a28.45,28.45,0,0,1,19.68-49h272.56a27.7,27.7,0,0,0,23.43-12.31l152.15-220.74a28.46,28.46,0,0,1,47.28.64l252.5,388.36A27.71,27.71,0,0,0,4910.17,835h18.89A28.45,28.45,0,0,0,4953,791.15l-293.72-455.9a27.89,27.89,0,0,0-27.42-12.83L3916.6,411.05a27.87,27.87,0,0,1-27.29-12.63l-152-231.6a14,14,0,0,1,0-15.62l3.91-5.93a28.46,28.46,0,0,0-26.73-43.94L2645,213.22a27.15,27.15,0,0,1-8.91-.47l-280.36-59.91v44.64a46.27,46.27,0,0,1-46.24,46.24h-69.68a46.27,46.27,0,0,1-46.24-46.24V118.19L1700.91,12.92a13.88,13.88,0,0,0-13.3,4.14,13.88,13.88,0,0,0-3.39,13.52,29.75,29.75,0,0,1,1,8,27.6,27.6,0,0,1-11,22.22L740.45,784.62a28.46,28.46,0,0,0,17.44,50.95Z"/><path class="cls-6" d="M757.88,835.57H861.31a27.35,27.35,0,0,0,17.14-5.75l914.86-690.36a28.17,28.17,0,0,1,35,.55l865.34,697.17a27.36,27.36,0,0,0,17.85,6.3h520.62a28.46,28.46,0,0,0,17.47-50.92L3020,613.94A28.46,28.46,0,0,1,3037.43,563h413.66a27.72,27.72,0,0,0,23.77-12.82l176.25-267.89a28.47,28.47,0,0,1,47.5-.07l205.6,310.4a27.3,27.3,0,0,1,4.74,15.71v202a28.51,28.51,0,0,0,28.45,28.45H4177a28.46,28.46,0,0,0,19.68-49l-78-74.68a28.45,28.45,0,0,1,19.68-49h272.56a27.7,27.7,0,0,0,23.43-12.31l152.15-220.74a28.46,28.46,0,0,1,47.28.64l252.5,388.36A27.71,27.71,0,0,0,4910.17,835h18.89A28.45,28.45,0,0,0,4953,791.15l-293.72-455.9a27.89,27.89,0,0,0-27.42-12.83L3916.6,411.05a27.87,27.87,0,0,1-27.29-12.63l-152-231.6a14,14,0,0,1,0-15.62l3.91-5.93a28.46,28.46,0,0,0-26.73-43.94L2645,213.22a27.15,27.15,0,0,1-8.91-.47l-280.36-59.91v44.64a46.27,46.27,0,0,1-46.24,46.24h-69.68a46.27,46.27,0,0,1-46.24-46.24V118.19L1700.91,12.92a13.88,13.88,0,0,0-13.3,4.14,13.88,13.88,0,0,0-3.39,13.52,29.75,29.75,0,0,1,1,8,27.6,27.6,0,0,1-11,22.22L740.45,784.62a28.46,28.46,0,0,0,17.44,50.95Z"/><path class="cls-1" d="M3311.06,1543.53l157.2-541.06h255l153.9,541.06h76.59v301.53H3819.57l-17.23-146.41H3386.62l-17.76,146.41H3234.64V1543.53Zm166.78,0h192.89l-85.13-380.9h-10.27Z"/><path class="cls-2" d="M3574.28,1002.47h149l153.9,541.06h76.59v301.53H3819.57l-17.23-146.41H3574.28V1543.53h96.45l-85.13-380.9h-10.27l-1,4.08Zm-263.22,541.06,157.2-541.06h106v164.24l-96.45,376.82h96.45v155.12H3386.62l-17.76,146.41H3234.64V1543.53Z"/></g></g></svg>